<svg xmlns="http://www.w3.org/2000/svg" width="288" height="288" viewBox="0 0 288 288">
  <g id="ball-icon" transform="translate(-293 -117)">
    <g id="Ellipse_3" data-name="Ellipse 3" transform="translate(293 117)" fill="#fff" stroke="#000001" stroke-width="10">
      <circle cx="144" cy="144" r="144" stroke="none"/>
      <circle cx="144" cy="144" r="139" fill="none"/>
    </g>
    <path id="Intersection_2" data-name="Intersection 2" d="M-4502.256-1653.568c.355-1.439.671-2.31.873-2.323,246.737-15.749,142.99-227.585,139.622-234.33A138.727,138.727,0,0,1-4310-1782a139,139,0,0,1-139,139A138.61,138.61,0,0,1-4502.256-1653.568Z" transform="translate(4886 2043)" fill="#f5f5f5"/>
    <g id="Ellipse_6" data-name="Ellipse 6" transform="translate(293 117)" fill="none" stroke="#000001" stroke-width="10">
      <circle cx="144" cy="144" r="144" stroke="none"/>
      <circle cx="144" cy="144" r="139" fill="none"/>
    </g>
    <path id="Path_20" data-name="Path 20" d="M4923.223,2100.454c63.458,60.714,177.879,43.959,210.98,0" transform="translate(-4593 -1926)" fill="none" stroke="#000001" stroke-width="5"/>
    <path id="Path_21" data-name="Path 21" d="M4931.805,2285.338c64.975-24.168,139.7-23.351,198.078,0" transform="translate(-4593 -1926)" fill="none" stroke="#000001" stroke-width="5"/>
    <path id="Path_22" data-name="Path 22" d="M4932.8,2085.144c-12.229,1.624-11.538,11.3-11.538,11.3s-12.229,2.487-8.981,11.261" transform="translate(-4593 -1926)" fill="none" stroke="#b04450" stroke-width="5"/>
    <path id="Path_23" data-name="Path 23" d="M4932.8,2085.144c-12.229,1.624-11.538,11.3-11.538,11.3s-12.229,2.487-8.981,11.261" transform="translate(-4583 -1917)" fill="none" stroke="#b04450" stroke-width="5"/>
    <path id="Path_24" data-name="Path 24" d="M4932.8,2085.144c-12.229,1.624-11.538,11.3-11.538,11.3s-12.229,2.487-8.981,11.261" transform="translate(-4572 -1908)" fill="none" stroke="#b04450" stroke-width="5"/>
    <path id="Path_25" data-name="Path 25" d="M4932.8,2085.144c-12.229,1.624-11.538,11.3-11.538,11.3s-12.229,2.487-8.981,11.261" transform="matrix(0.996, -0.087, 0.087, 0.996, -4722.984, -1463.019)" fill="none" stroke="#b04450" stroke-width="5"/>
    <path id="Path_26" data-name="Path 26" d="M4932.8,2085.144c-12.229,1.624-11.538,11.3-11.538,11.3s-12.229,2.487-8.981,11.261" transform="translate(-4854.581 -916.27) rotate(-11)" fill="none" stroke="#b04450" stroke-width="5"/>
    <path id="Path_27" data-name="Path 27" d="M4932.8,2085.144c-12.229,1.624-11.538,11.3-11.538,11.3s-12.229,2.487-8.981,11.261" transform="translate(-4839.581 -911.27) rotate(-11)" fill="none" stroke="#b04450" stroke-width="5"/>
    <path id="Path_40" data-name="Path 40" d="M4932.8,2085.144c-12.229,1.624-11.538,11.3-11.538,11.3s-12.229,2.487-8.981,11.261" transform="translate(2854.714 -4361.397) rotate(95)" fill="none" stroke="#b04450" stroke-width="5"/>
    <path id="Path_42" data-name="Path 42" d="M4932.8,2085.144c-12.229,1.624-11.538,11.3-11.538,11.3s-12.229,2.487-8.981,11.261" transform="matrix(-0.259, 0.966, -0.966, -0.259, 3651.23, -3857.527)" fill="none" stroke="#b04450" stroke-width="5"/>
    <path id="Path_43" data-name="Path 43" d="M4932.8,2085.144c-12.229,1.624-11.538,11.3-11.538,11.3s-12.229,2.487-8.981,11.261" transform="matrix(-0.407, 0.914, -0.914, -0.407, 4284.508, -3293.599)" fill="none" stroke="#b04450" stroke-width="5"/>
    <path id="Path_44" data-name="Path 44" d="M4932.8,2085.144c-12.229,1.624-11.538,11.3-11.538,11.3s-12.229,2.487-8.981,11.261" transform="translate(4658.953 -2867.173) rotate(120)" fill="none" stroke="#b04450" stroke-width="5"/>
    <path id="Path_45" data-name="Path 45" d="M4932.8,2085.144c-12.229,1.624-11.538,11.3-11.538,11.3s-12.229,2.487-8.981,11.261" transform="translate(5079.718 -2243.689) rotate(128)" fill="none" stroke="#b04450" stroke-width="5"/>
    <path id="Path_46" data-name="Path 46" d="M4932.8,2085.144c-12.229,1.624-11.538,11.3-11.538,11.3s-12.229,2.487-8.981,11.261" transform="translate(5264.85 -1912.753) rotate(132)" fill="none" stroke="#b04450" stroke-width="5"/>
    <path id="Path_47" data-name="Path 47" d="M4932.8,2085.144c-12.229,1.624-11.538,11.3-11.538,11.3s-12.229,2.487-8.981,11.261" transform="translate(5281.85 -1913.753) rotate(132)" fill="none" stroke="#b04450" stroke-width="5"/>
    <path id="Path_48" data-name="Path 48" d="M4932.8,2085.144c-12.229,1.624-11.538,11.3-11.538,11.3s-12.229,2.487-8.981,11.261" transform="translate(5539.523 -1304.684) rotate(139)" fill="none" stroke="#b04450" stroke-width="5"/>
    <path id="Path_49" data-name="Path 49" d="M4932.8,2085.144c-12.229,1.624-11.538,11.3-11.538,11.3s-12.229,2.487-8.981,11.261" transform="matrix(-0.809, 0.588, -0.588, -0.809, 5682.708, -852.771)" fill="none" stroke="#b04450" stroke-width="5"/>
    <path id="Path_50" data-name="Path 50" d="M4932.8,2085.144c-12.229,1.624-11.538,11.3-11.538,11.3s-12.229,2.487-8.981,11.261" transform="matrix(-0.829, 0.559, -0.559, -0.829, 5740.313, -668.061)" fill="none" stroke="#b04450" stroke-width="5"/>
    <path id="Path_51" data-name="Path 51" d="M4932.8,2085.144c-12.229,1.624-11.538,11.3-11.538,11.3s-12.229,2.487-8.981,11.261" transform="translate(5852.339 170.187) rotate(155)" fill="none" stroke="#b04450" stroke-width="5"/>
    <path id="Path_52" data-name="Path 52" d="M4932.8,2085.144c-12.229,1.624-11.538,11.3-11.538,11.3s-12.229,2.487-8.981,11.261" transform="translate(5830.703 1012.873) rotate(164)" fill="none" stroke="#b04450" stroke-width="5"/>
    <path id="Path_41" data-name="Path 41" d="M4932.8,2085.144c-12.229,1.624-11.538,11.3-11.538,11.3s-12.229,2.487-8.981,11.261" transform="matrix(-0.999, 0.052, -0.052, -0.999, 5560.503, 2195.36)" fill="none" stroke="#b04450" stroke-width="5"/>
    <path id="Path_28" data-name="Path 28" d="M4932.8,2085.144c-12.229,1.624-11.538,11.3-11.538,11.3s-12.229,2.487-8.981,11.261" transform="translate(-4930.356 -168.251) rotate(-19)" fill="none" stroke="#b04450" stroke-width="5"/>
    <path id="Path_29" data-name="Path 29" d="M4932.8,2085.144c-12.229,1.624-11.538,11.3-11.538,11.3s-12.229,2.487-8.981,11.261" transform="matrix(0.839, -0.545, 0.545, 0.839, -4848.687, 1136.073)" fill="none" stroke="#b04450" stroke-width="5"/>
    <path id="Path_30" data-name="Path 30" d="M4932.8,2085.144c-12.229,1.624-11.538,11.3-11.538,11.3s-12.229,2.487-8.981,11.261" transform="translate(-4707.375 1681.878) rotate(-39)" fill="none" stroke="#b04450" stroke-width="5"/>
    <path id="Path_31" data-name="Path 31" d="M4932.8,2085.144c-12.229,1.624-11.538,11.3-11.538,11.3s-12.229,2.487-8.981,11.261" transform="translate(-4437.938 2382.583) rotate(-47)" fill="none" stroke="#b04450" stroke-width="5"/>
    <path id="Path_32" data-name="Path 32" d="M4932.8,2085.144c-12.229,1.624-11.538,11.3-11.538,11.3s-12.229,2.487-8.981,11.261" transform="matrix(0.616, -0.788, 0.788, 0.616, -4213.187, 2798.534)" fill="none" stroke="#b04450" stroke-width="5"/>
    <path id="Path_33" data-name="Path 33" d="M4932.8,2085.144c-12.229,1.624-11.538,11.3-11.538,11.3s-12.229,2.487-8.981,11.261" transform="translate(-3847.873 3347.89) rotate(-59)" fill="none" stroke="#b04450" stroke-width="5"/>
    <path id="Path_34" data-name="Path 34" d="M4932.8,2085.144c-12.229,1.624-11.538,11.3-11.538,11.3s-12.229,2.487-8.981,11.261" transform="matrix(0.469, -0.883, 0.883, 0.469, -3664.629, 3566.314)" fill="none" stroke="#b04450" stroke-width="5"/>
    <path id="Path_35" data-name="Path 35" d="M4932.8,2085.144c-12.229,1.624-11.538,11.3-11.538,11.3s-12.229,2.487-8.981,11.261" transform="translate(-3407.978 3841.444) rotate(-66)" fill="none" stroke="#b04450" stroke-width="5"/>
    <path id="Path_36" data-name="Path 36" d="M4932.8,2085.144c-12.229,1.624-11.538,11.3-11.538,11.3s-12.229,2.487-8.981,11.261" transform="matrix(0.309, -0.951, 0.951, 0.309, -2993.615, 4223.945)" fill="none" stroke="#b04450" stroke-width="5"/>
    <path id="Path_37" data-name="Path 37" d="M4932.8,2085.144c-12.229,1.624-11.538,11.3-11.538,11.3s-12.229,2.487-8.981,11.261" transform="translate(-1987.183 4903.242) rotate(-85)" fill="none" stroke="#b04450" stroke-width="5"/>
    <path id="Path_38" data-name="Path 38" d="M4932.8,2085.144c-12.229,1.624-11.538,11.3-11.538,11.3s-12.229,2.487-8.981,11.261" transform="translate(-1978.183 4897.242) rotate(-85)" fill="none" stroke="#b04450" stroke-width="5"/>
    <path id="Path_39" data-name="Path 39" d="M4930.28,2085.112c-9.548,6.824-9.018,11.328-9.018,11.328s-9.562,2.573-11.22,11.006" transform="translate(-1971.183 4889.242) rotate(-85)" fill="none" stroke="#b04450" stroke-width="5"/>
  </g>
</svg>
