<svg xmlns="http://www.w3.org/2000/svg" width="519.139" height="514.329" viewBox="0 0 519.139 514.329">
  <g id="bat-pencil-cross" transform="translate(-354.529 -120.662)">
    <g id="Group_1" data-name="Group 1" transform="translate(374.951 127.902)">
      <path id="bat_bg" data-name="bat bg" d="M1414.13,913.064l-5.472-5.217L960.517,514.568s4.553-23.021,21.318-39.255,46.1-23.162,46.374-23.429,84.12,84.921,84.12,84.921l327.816,350.055s34.241-2.767,17.227,19.471c-15.81,20.665-43.87,44.91-43.238,13.772.013-.683.057-1.655.129-2.677-.078-1.143-1.817-6.479-1.82-8.146" transform="translate(-975.576 -446.785)" fill="#e1a846"/>
      <path id="bat_shd" data-name="bat shd" d="M-154.322,369.814c11.535-13.82-16.649-10.882-16.649-10.882S-572.2-63.3-580.14-71.24s-27.532,0-27.532,0l.564-.691c16.277-14.92,31.428-13.482,31.688-13.741S-491.3-.751-491.3-.751L-163.484,349.3s34.24-2.767,17.227,19.471c-1.939,2.534-4.062,5.122-6.293,7.655C-155.929,375.212-157.1,373.145-154.322,369.814Z" transform="translate(628.049 90.77)" fill="#bc8b37"/>
      <path id="bat_str" data-name="bat str" d="M1414.13,913.064l-5.472-5.217-448.5-391s1.49-24.814,25.754-45.612,42.03-19.09,42.3-19.357,84.12,84.921,84.12,84.921l327.816,350.055s34.241-2.767,17.227,19.471c-15.81,20.665-43.87,44.91-43.238,13.772.013-.683.057-1.655.129-2.677-.078-1.143-1.817-6.479-1.82-8.146" transform="translate(-975.576 -446.785)" fill="none" stroke="#000" stroke-linejoin="round" stroke-width="10"/>
      <path id="bat_hlt" data-name="bat hlt" d="M710.916,457.029s-5.411,9.951-3.662,12.672c.28.435,415.712,361.89,450.289,394.62.707,26.507,13.247,6.5,13.247,6.5l1.6-2.495-8.978-9.6h0Z" transform="translate(-710.576 -403.785)" fill="#eecb8f"/>
    </g>
    <g id="Group_2" data-name="Group 2">
      <path id="tip_bg" data-name="tip bg" d="M2259.41,771.754,2315.191,652.6s18.545,6.7,17.468,22.98c.467.359,23.806,2.98,22.729,27.522.485,0,17-1.077,23.465,21.077l-17.873,7.7Z" transform="translate(-1893 -146)" fill="#e1a846"/>
      <path id="tip_shd" data-name="tip shd" d="M2261.205,772.652s79.82-31.256,94.667-73.859c0-.359,24.9,25.134,24.9,25.134Z" transform="translate(-1893 -146)" fill="#bc8b37"/>
      <path id="shaft_mid" data-name="shaft mid" d="M2309.576,650.692l24.92,30.766,309.913-313.81-21.177-25.279Z" transform="translate(-1869 -126)" fill="#047bbc"/>
      <path id="shaft_left" data-name="shaft left" d="M2315.828,650.142l17.355,21.3,314.7-309.477-28.459-17.508Z" transform="translate(-1893 -146)" fill="#058ed9" stroke="#000" stroke-width="5"/>
      <path id="shaft_left-2" data-name="shaft left" d="M2314.035,652.1l21.536,20.869L2641.535,363.26l-18.767-23.228Z" transform="translate(-1847 -97)" fill="#015c8e" stroke="#000" stroke-width="5"/>
      <path id="tip_str" data-name="tip str" d="M2259.41,771.754,2315.191,652.6s18.545,6.7,17.468,22.98c.467.359,23.806,2.98,22.729,27.522.485,0,17-1.077,23.465,21.077l-17.873,7.7Z" transform="translate(-1893 -146)" fill="none" stroke="#000" stroke-width="10"/>
      <path id="rubber" d="M2637.638,331.089l55.019-58.814h27.689l29.433,16.049,11.588,26.664v23.587l-59.48,55.378Z" transform="translate(-1893 -146)" fill="#b04450"/>
      <path id="rubber_hlt" data-name="rubber hlt" d="M2713.985,289.36c28.126-5.674-15.17-7.494-15.17-7.494l-40.657,40.05,4.248,15.565S2685.859,295.034,2713.985,289.36Z" transform="translate(-1893 -146)" fill="#b8616b"/>
      <path id="rubber_shd" data-name="rubber shd" d="M2749.057,292.7c.607,46.907-55.615,99.518-55.615,99.518l7.889,9.891,61.713-65.536-1.638-25.274Z" transform="translate(-1893 -146)" fill="#8e3640"/>
      <path id="pencil_outline" data-name="pencil outline" d="M2262.26,770.378l52.6-119.586,378.43-378.43s73.312-12.132,68.112,64.733c0,.607-378.343,385.882-378.343,385.882Z" transform="translate(-1893 -146)" fill="none" stroke="#000" stroke-width="10"/>
      <path id="lead" d="M2258.454,773.48l23.484-44.692h11.135l-1.638,12.956h12.956V754.7Z" transform="translate(-1893 -146)"/>
      <path id="metal" d="M2613.255,344.459s49.661,11.6,73.607,75.852c0,.667,33.193-31.342,33.193-31.342s-.531-50.394-74.369-79.775C2645.686,309.861,2613.255,344.459,2613.255,344.459Z" transform="translate(-1893 -146)" fill="#a9a5a6" stroke="#000" stroke-linejoin="round" stroke-width="5"/>
      <path id="metal_shd" data-name="metal shd" d="M2705.491,353.562s10.923,21.056-21.845,58.254c-.425.394,3.034,7.889,3.034,7.889l33.375-30.523-4.066-18.2Z" transform="translate(-1893 -146)" fill="#9b9798"/>
      <path id="metal_str" data-name="metal str" d="M2613.255,344.459s49.661,11.6,73.607,75.852c0,.667,33.193-31.342,33.193-31.342s-.531-50.394-74.369-79.775C2645.686,309.861,2613.255,344.459,2613.255,344.459Z" transform="translate(-1893 -146)" fill="none" stroke="#000" stroke-linejoin="round" stroke-width="5"/>
    </g>
  </g>
</svg>
