<svg xmlns="http://www.w3.org/2000/svg" width="519.139" height="514.329" viewBox="0 0 519.139 514.329">
  <g id="cb-init-logo-blue" transform="translate(-354.529 -120.662)">
    <g id="Union_1" data-name="Union 1" transform="translate(2297 1229)" fill="#058ed9">
      <path d="M -1685.998657226563 -626.999755859375 C -1699.707397460938 -626.999755859375 -1713.406127929688 -628.3805541992188 -1726.714233398438 -631.103759765625 C -1739.681518554688 -633.7572631835938 -1752.4365234375 -637.7166137695313 -1764.625 -642.8718872070313 C -1776.59326171875 -647.9340209960938 -1788.13720703125 -654.1998291015625 -1798.935791015625 -661.4952392578125 C -1809.633178710938 -668.7222290039063 -1819.692749023438 -677.0220947265625 -1828.8349609375 -686.1642456054688 C -1837.97705078125 -695.3064575195313 -1846.276977539063 -705.3658447265625 -1853.504028320313 -716.063232421875 C -1860.799438476563 -726.8618774414063 -1867.065307617188 -738.4056396484375 -1872.12744140625 -750.3739013671875 C -1877.28271484375 -762.5623168945313 -1881.242065429688 -775.3173217773438 -1883.895629882813 -788.2846069335938 C -1886.618774414063 -801.5925903320313 -1887.999633789063 -815.291259765625 -1887.999633789063 -829 L -1887.999633789063 -1030.999877929688 L -1484.000122070313 -1030.999877929688 L -1484.000122070313 -829 C -1484.000122070313 -815.291259765625 -1485.380859375 -801.5925903320313 -1488.10400390625 -788.2845458984375 C -1490.757446289063 -775.3173217773438 -1494.716796875 -762.5623168945313 -1499.871948242188 -750.3739013671875 C -1504.93408203125 -738.4055786132813 -1511.19970703125 -726.86181640625 -1518.494995117188 -716.063232421875 C -1525.721923828125 -705.3658447265625 -1534.021606445313 -695.306396484375 -1543.163696289063 -686.1641845703125 C -1552.305786132813 -677.0220336914063 -1562.365112304688 -668.7222290039063 -1573.062377929688 -661.4952392578125 C -1583.860961914063 -654.1998291015625 -1595.404541015625 -647.9340209960938 -1607.372802734375 -642.8718872070313 C -1619.561157226563 -637.7166137695313 -1632.316040039063 -633.7572631835938 -1645.283325195313 -631.103759765625 C -1658.59130859375 -628.3805541992188 -1672.289916992188 -626.999755859375 -1685.998657226563 -626.999755859375 Z" stroke="none"/>
      <path d="M -1882.999633789063 -1025.999877929688 L -1882.999633789063 -829 C -1882.999633789063 -720.3737182617188 -1794.625366210938 -631.999755859375 -1685.998657226563 -631.999755859375 C -1577.373291015625 -631.999755859375 -1489.000122070313 -720.3737182617188 -1489.000122070313 -829 L -1489.000122070313 -1025.999877929688 L -1882.999633789063 -1025.999877929688 M -1892.999633789063 -1035.999877929688 L -1479.000122070313 -1035.999877929688 L -1479.000122070313 -829 C -1479.000122070313 -714.6768798828125 -1571.675415039063 -621.999755859375 -1685.998657226563 -621.999755859375 C -1800.322143554688 -621.999755859375 -1892.999633789063 -714.6768798828125 -1892.999633789063 -829 L -1892.999633789063 -1035.999877929688 Z" stroke="none" fill="#000001"/>
    </g>
    <g id="Group_1" data-name="Group 1" transform="translate(374.951 127.902)">
      <path id="bat_bg" data-name="bat bg" d="M1414.13,913.064l-5.472-5.217L960.517,514.568s4.553-23.021,21.318-39.255,46.1-23.162,46.374-23.429,84.12,84.921,84.12,84.921l327.816,350.055s34.241-2.767,17.227,19.471c-15.81,20.665-43.87,44.91-43.238,13.772.013-.683.057-1.655.129-2.677-.078-1.143-1.817-6.479-1.82-8.146" transform="translate(-975.576 -446.785)" fill="#e1a846"/>
      <path id="bat_shd" data-name="bat shd" d="M-154.322,369.814c11.535-13.82-16.649-10.882-16.649-10.882S-572.2-63.3-580.14-71.24s-27.532,0-27.532,0l.564-.691c16.277-14.92,31.428-13.482,31.688-13.741S-491.3-.751-491.3-.751L-163.484,349.3s34.24-2.767,17.227,19.471c-1.939,2.534-4.062,5.122-6.293,7.655C-155.929,375.212-157.1,373.145-154.322,369.814Z" transform="translate(628.049 90.77)" fill="#bc8b37"/>
      <path id="bat_str" data-name="bat str" d="M1414.13,913.064l-5.472-5.217-448.5-391s1.49-24.814,25.754-45.612,42.03-19.09,42.3-19.357,84.12,84.921,84.12,84.921l327.816,350.055s34.241-2.767,17.227,19.471c-15.81,20.665-43.87,44.91-43.238,13.772.013-.683.057-1.655.129-2.677-.078-1.143-1.817-6.479-1.82-8.146" transform="translate(-975.576 -446.785)" fill="none" stroke="#000" stroke-linejoin="round" stroke-width="10"/>
      <path id="bat_hlt" data-name="bat hlt" d="M710.916,457.029s-5.411,9.951-3.662,12.672c.28.435,415.712,361.89,450.289,394.62.707,26.507,13.247,6.5,13.247,6.5l1.6-2.495-8.978-9.6h0Z" transform="translate(-710.576 -403.785)" fill="#eecb8f"/>
    </g>
    <path id="tip_bg" data-name="tip bg" d="M2259.41,771.754,2315.191,652.6s18.545,6.7,17.468,22.98c.467.359,23.806,2.98,22.729,27.522.485,0,17-1.077,23.465,21.077l-17.873,7.7Z" transform="translate(-1893 -146)" fill="#e1a846"/>
    <path id="tip_shd" data-name="tip shd" d="M2261.205,772.652s79.82-31.256,94.667-73.859c0-.359,24.9,25.134,24.9,25.134Z" transform="translate(-1893 -146)" fill="#bc8b37"/>
    <path id="shaft_mid" data-name="shaft mid" d="M2309.576,650.692l24.92,30.766,309.913-313.81-21.177-25.279Z" transform="translate(-1869 -126)" fill="#b04450"/>
    <path id="shaft_left" data-name="shaft left" d="M2315.828,650.142l17.355,21.3,314.7-309.477-28.459-17.508Z" transform="translate(-1893 -146)" fill="#b8616b" stroke="#000" stroke-width="5"/>
    <path id="shaft_left-2" data-name="shaft left" d="M2314.035,652.1l21.536,20.869L2641.535,363.26l-18.767-23.228Z" transform="translate(-1847 -97)" fill="#8e3640" stroke="#000" stroke-width="5"/>
    <path id="tip_str" data-name="tip str" d="M2259.41,771.754,2315.191,652.6s18.545,6.7,17.468,22.98c.467.359,23.806,2.98,22.729,27.522.485,0,17-1.077,23.465,21.077l-17.873,7.7Z" transform="translate(-1893 -146)" fill="none" stroke="#000" stroke-width="10"/>
    <path id="rubber" d="M2637.638,331.089l55.019-58.814h27.689l29.433,16.049,11.588,26.664v23.587l-59.48,55.378Z" transform="translate(-1893 -146)" fill="#c94545"/>
    <path id="rubber_hlt" data-name="rubber hlt" d="M2713.985,289.36c28.126-5.674-15.17-7.494-15.17-7.494l-40.657,40.05,4.248,15.565S2685.859,295.034,2713.985,289.36Z" transform="translate(-1893 -146)" fill="#ce6565"/>
    <path id="rubber_shd" data-name="rubber shd" d="M2749.057,292.7c.607,46.907-55.615,99.518-55.615,99.518l7.889,9.891,61.713-65.536-1.638-25.274Z" transform="translate(-1893 -146)" fill="#8e3640" stroke="#a83939" stroke-width="1"/>
    <path id="pencil_outline" data-name="pencil outline" d="M2262.26,770.378l52.6-119.586,378.43-378.43s73.312-12.132,68.112,64.733c0,.607-378.343,385.882-378.343,385.882Z" transform="translate(-1893 -146)" fill="none" stroke="#000" stroke-width="10"/>
    <path id="lead" d="M2258.454,773.48l23.484-44.692h11.135l-1.638,12.956h12.956V754.7Z" transform="translate(-1893 -146)"/>
    <path id="metal" d="M2613.255,344.459s49.661,11.6,73.607,75.852c0,.667,33.193-31.342,33.193-31.342s-.531-50.394-74.369-79.775C2645.686,309.861,2613.255,344.459,2613.255,344.459Z" transform="translate(-1893 -146)" fill="#a9a5a6" stroke="#000" stroke-linejoin="round" stroke-width="5"/>
    <path id="metal_shd" data-name="metal shd" d="M2705.491,353.562s10.923,21.056-21.845,58.254c-.425.394,3.034,7.889,3.034,7.889l33.375-30.523-4.066-18.2Z" transform="translate(-1893 -146)" fill="#9b9798"/>
    <path id="metal_str" data-name="metal str" d="M2613.255,344.459s49.661,11.6,73.607,75.852c0,.667,33.193-31.342,33.193-31.342s-.531-50.394-74.369-79.775C2645.686,309.861,2613.255,344.459,2613.255,344.459Z" transform="translate(-1893 -146)" fill="none" stroke="#000" stroke-linejoin="round" stroke-width="5"/>
    <g id="Path_13" data-name="Path 13" transform="translate(378.377 266.87)" fill="#b04450">
      <path d="M 230.1276092529297 250.2736663818359 L 2.499984502792358 176.5620422363281 L 2.499984502792358 2.499994516372681 L 462.30517578125 2.499994516372681 L 462.30517578125 176.5511016845703 L 230.1276092529297 250.2736663818359 Z" stroke="none"/>
      <path d="M 5 5.000030517578125 L 5 174.7437744140625 L 230.1351776123047 247.6482696533203 L 459.8051452636719 174.721923828125 L 459.8051452636719 5.000030517578125 L 5 5.000030517578125 M 0 3.0517578125e-05 L 464.8051452636719 3.0517578125e-05 L 464.8051452636719 178.3802795410156 L 230.1201324462891 252.8990173339844 L 0 178.3802795410156 L 0 3.0517578125e-05 Z" stroke="none" fill="#000001"/>
    </g>
    <g id="Path_14" data-name="Path 14" transform="translate(389.165 276.743)" fill="#b04450">
      <path d="M 219.1990966796875 229.1426696777344 L 2.499993801116943 159.5189361572266 L 2.499993801116943 2.499989032745361 L 441.1709289550781 2.499989032745361 L 441.1709289550781 159.5057525634766 L 219.1990966796875 229.1426696777344 Z" stroke="none"/>
      <path d="M 5 4.999984741210938 L 5 157.6962890625 L 219.2081146240234 226.5196838378906 L 438.6709289550781 157.6698913574219 L 438.6709289550781 4.999984741210938 L 5 4.999984741210938 M 0 -1.52587890625e-05 L 443.6709289550781 -1.52587890625e-05 L 443.6709289550781 161.3415832519531 L 219.1900482177734 231.7656402587891 L 0 161.3415832519531 L 0 -1.52587890625e-05 Z" stroke="none" fill="#eecb8f"/>
    </g>
    <text id="CB" transform="translate(492 447)" fill="#eecb8f" font-size="200" font-family="Varsity Regular"><tspan x="0" y="0">CB</tspan></text>
  </g>
</svg>
