<svg xmlns="http://www.w3.org/2000/svg" width="528" height="514.329" viewBox="0 0 528 514.329">
  <g id="cb-logo-red" transform="translate(-354 -120.662)">
    <g id="Union_1" data-name="Union 1" transform="translate(2297 1229)" fill="#b04450">
      <path d="M -1685.998657226563 -626.999755859375 C -1699.707397460938 -626.999755859375 -1713.406127929688 -628.3805541992188 -1726.714233398438 -631.103759765625 C -1739.681518554688 -633.7572631835938 -1752.4365234375 -637.7166137695313 -1764.625 -642.8718872070313 C -1776.59326171875 -647.9340209960938 -1788.13720703125 -654.1998291015625 -1798.935791015625 -661.4952392578125 C -1809.633178710938 -668.7222290039063 -1819.692749023438 -677.0220947265625 -1828.8349609375 -686.1642456054688 C -1837.97705078125 -695.3064575195313 -1846.276977539063 -705.3658447265625 -1853.504028320313 -716.063232421875 C -1860.799438476563 -726.8618774414063 -1867.065307617188 -738.4056396484375 -1872.12744140625 -750.3739013671875 C -1877.28271484375 -762.5623168945313 -1881.242065429688 -775.3173217773438 -1883.895629882813 -788.2846069335938 C -1886.618774414063 -801.5925903320313 -1887.999633789063 -815.291259765625 -1887.999633789063 -829 L -1887.999633789063 -1030.999877929688 L -1484.000122070313 -1030.999877929688 L -1484.000122070313 -829 C -1484.000122070313 -815.291259765625 -1485.380859375 -801.5925903320313 -1488.10400390625 -788.2845458984375 C -1490.757446289063 -775.3173217773438 -1494.716796875 -762.5623168945313 -1499.871948242188 -750.3739013671875 C -1504.93408203125 -738.4055786132813 -1511.19970703125 -726.86181640625 -1518.494995117188 -716.063232421875 C -1525.721923828125 -705.3658447265625 -1534.021606445313 -695.306396484375 -1543.163696289063 -686.1641845703125 C -1552.305786132813 -677.0220336914063 -1562.365112304688 -668.7222290039063 -1573.062377929688 -661.4952392578125 C -1583.860961914063 -654.1998291015625 -1595.404541015625 -647.9340209960938 -1607.372802734375 -642.8718872070313 C -1619.561157226563 -637.7166137695313 -1632.316040039063 -633.7572631835938 -1645.283325195313 -631.103759765625 C -1658.59130859375 -628.3805541992188 -1672.289916992188 -626.999755859375 -1685.998657226563 -626.999755859375 Z" stroke="none"/>
      <path d="M -1882.999633789063 -1025.999877929688 L -1882.999633789063 -829 C -1882.999633789063 -720.3737182617188 -1794.625366210938 -631.999755859375 -1685.998657226563 -631.999755859375 C -1577.373291015625 -631.999755859375 -1489.000122070313 -720.3737182617188 -1489.000122070313 -829 L -1489.000122070313 -1025.999877929688 L -1882.999633789063 -1025.999877929688 M -1892.999633789063 -1035.999877929688 L -1479.000122070313 -1035.999877929688 L -1479.000122070313 -829 C -1479.000122070313 -714.6768798828125 -1571.675415039063 -621.999755859375 -1685.998657226563 -621.999755859375 C -1800.322143554688 -621.999755859375 -1892.999633789063 -714.6768798828125 -1892.999633789063 -829 L -1892.999633789063 -1035.999877929688 Z" stroke="none" fill="#000001"/>
    </g>
    <g id="Group_1" data-name="Group 1" transform="translate(374.951 127.902)">
      <path id="bat_bg" data-name="bat bg" d="M1414.13,913.064l-5.472-5.217L960.517,514.568s4.553-23.021,21.318-39.255,46.1-23.162,46.374-23.429,84.12,84.921,84.12,84.921l327.816,350.055s34.241-2.767,17.227,19.471c-15.81,20.665-43.87,44.91-43.238,13.772.013-.683.057-1.655.129-2.677-.078-1.143-1.817-6.479-1.82-8.146" transform="translate(-975.576 -446.785)" fill="#e1a846"/>
      <path id="bat_shd" data-name="bat shd" d="M-154.322,369.814c11.535-13.82-16.649-10.882-16.649-10.882S-572.2-63.3-580.14-71.24s-27.532,0-27.532,0l.564-.691c16.277-14.92,31.428-13.482,31.688-13.741S-491.3-.751-491.3-.751L-163.484,349.3s34.24-2.767,17.227,19.471c-1.939,2.534-4.062,5.122-6.293,7.655C-155.929,375.212-157.1,373.145-154.322,369.814Z" transform="translate(628.049 90.77)" fill="#bc8b37"/>
      <path id="bat_str" data-name="bat str" d="M1414.13,913.064l-5.472-5.217-448.5-391s1.49-24.814,25.754-45.612,42.03-19.09,42.3-19.357,84.12,84.921,84.12,84.921l327.816,350.055s34.241-2.767,17.227,19.471c-15.81,20.665-43.87,44.91-43.238,13.772.013-.683.057-1.655.129-2.677-.078-1.143-1.817-6.479-1.82-8.146" transform="translate(-975.576 -446.785)" fill="none" stroke="#000" stroke-linejoin="round" stroke-width="10"/>
      <path id="bat_hlt" data-name="bat hlt" d="M710.916,457.029s-5.411,9.951-3.662,12.672c.28.435,415.712,361.89,450.289,394.62.707,26.507,13.247,6.5,13.247,6.5l1.6-2.495-8.978-9.6h0Z" transform="translate(-710.576 -403.785)" fill="#eecb8f"/>
    </g>
    <g id="Group_2" data-name="Group 2">
      <path id="tip_bg" data-name="tip bg" d="M2259.41,771.754,2315.191,652.6s18.545,6.7,17.468,22.98c.467.359,23.806,2.98,22.729,27.522.485,0,17-1.077,23.465,21.077l-17.873,7.7Z" transform="translate(-1893 -146)" fill="#e1a846"/>
      <path id="tip_shd" data-name="tip shd" d="M2261.205,772.652s79.82-31.256,94.667-73.859c0-.359,24.9,25.134,24.9,25.134Z" transform="translate(-1893 -146)" fill="#bc8b37"/>
      <path id="shaft_mid" data-name="shaft mid" d="M2309.576,650.692l24.92,30.766,309.913-313.81-21.177-25.279Z" transform="translate(-1869 -126)" fill="#047bbc"/>
      <path id="shaft_left" data-name="shaft left" d="M2315.828,650.142l17.355,21.3,314.7-309.477-28.459-17.508Z" transform="translate(-1893 -146)" fill="#058ed9" stroke="#000" stroke-width="5"/>
      <path id="shaft_left-2" data-name="shaft left" d="M2314.035,652.1l21.536,20.869L2641.535,363.26l-18.767-23.228Z" transform="translate(-1847 -97)" fill="#015c8e" stroke="#000" stroke-width="5"/>
      <path id="tip_str" data-name="tip str" d="M2259.41,771.754,2315.191,652.6s18.545,6.7,17.468,22.98c.467.359,23.806,2.98,22.729,27.522.485,0,17-1.077,23.465,21.077l-17.873,7.7Z" transform="translate(-1893 -146)" fill="none" stroke="#000" stroke-width="10"/>
      <path id="rubber" d="M2637.638,331.089l55.019-58.814h27.689l29.433,16.049,11.588,26.664v23.587l-59.48,55.378Z" transform="translate(-1893 -146)" fill="#b04450"/>
      <path id="rubber_hlt" data-name="rubber hlt" d="M2713.985,289.36c28.126-5.674-15.17-7.494-15.17-7.494l-40.657,40.05,4.248,15.565S2685.859,295.034,2713.985,289.36Z" transform="translate(-1893 -146)" fill="#b8616b"/>
      <path id="rubber_shd" data-name="rubber shd" d="M2749.057,292.7c.607,46.907-55.615,99.518-55.615,99.518l7.889,9.891,61.713-65.536-1.638-25.274Z" transform="translate(-1893 -146)" fill="#8e3640"/>
      <path id="pencil_outline" data-name="pencil outline" d="M2262.26,770.378l52.6-119.586,378.43-378.43s73.312-12.132,68.112,64.733c0,.607-378.343,385.882-378.343,385.882Z" transform="translate(-1893 -146)" fill="none" stroke="#000" stroke-width="10"/>
      <path id="lead" d="M2258.454,773.48l23.484-44.692h11.135l-1.638,12.956h12.956V754.7Z" transform="translate(-1893 -146)"/>
      <path id="metal" d="M2613.255,344.459s49.661,11.6,73.607,75.852c0,.667,33.193-31.342,33.193-31.342s-.531-50.394-74.369-79.775C2645.686,309.861,2613.255,344.459,2613.255,344.459Z" transform="translate(-1893 -146)" fill="#a9a5a6" stroke="#000" stroke-linejoin="round" stroke-width="5"/>
      <path id="metal_shd" data-name="metal shd" d="M2705.491,353.562s10.923,21.056-21.845,58.254c-.425.394,3.034,7.889,3.034,7.889l33.375-30.523-4.066-18.2Z" transform="translate(-1893 -146)" fill="#9b9798"/>
      <path id="metal_str" data-name="metal str" d="M2613.255,344.459s49.661,11.6,73.607,75.852c0,.667,33.193-31.342,33.193-31.342s-.531-50.394-74.369-79.775C2645.686,309.861,2613.255,344.459,2613.255,344.459Z" transform="translate(-1893 -146)" fill="none" stroke="#000" stroke-linejoin="round" stroke-width="5"/>
    </g>
    <g id="Path_7" data-name="Path 7" transform="translate(354 276)" fill="#313e50">
      <path d="M 523 148 L 5 148 L 5 5 L 266.90234375 5 L 523 5 L 523 148 Z" stroke="none"/>
      <path d="M 10 10 L 10 143 L 518 143 L 518 10 L 266.9023132324219 10 L 10 10 M 0 0 L 266.9023132324219 0 L 528 0 L 528 153 L 0 153 L 0 0 Z" stroke="none" fill="#000001"/>
    </g>
    <g id="Path_8" data-name="Path 8" transform="translate(359.529 282.651)" fill="none">
      <path d="M0,0H516.943V139.7H0Z" stroke="none"/>
      <path d="M 5 4.999984741210938 L 5 134.6972808837891 L 511.94287109375 134.6972808837891 L 511.94287109375 4.999984741210938 L 261.31298828125 4.999984741210938 L 5 4.999984741210938 M 0 -1.52587890625e-05 L 261.31298828125 -1.52587890625e-05 L 516.94287109375 -1.52587890625e-05 L 516.94287109375 139.6972808837891 L 0 139.6972808837891 L 0 -1.52587890625e-05 Z" stroke="none" fill="#eecb8f"/>
    </g>
    <path id="Path_132" data-name="Path 132" d="M48.3-15.036a7.13,7.13,0,0,1-1.512,3.024A46.146,46.146,0,0,1,37.3-2.73a21.29,21.29,0,0,1-13.1,4.494q-7.56,0-12.348-4.326T7.056-15.372a49.855,49.855,0,0,1,2.016-13.1,70.213,70.213,0,0,1,4.7-12.684A34.719,34.719,0,0,1,20.2-50.232q3.654-3.612,7.35-3.612a6.6,6.6,0,0,1,5.586,2.6,10.4,10.4,0,0,1,1.974,6.468,8.285,8.285,0,0,1-.546,2.9A12.019,12.019,0,0,1,33.348-39.4q-.672,1.008-1.008,1.008-.672,0-.672-.756a4.982,4.982,0,0,1,.294-1.134,4.837,4.837,0,0,0,.294-1.47,14.951,14.951,0,0,0-.5-3.948,5.028,5.028,0,0,0-1.68-2.646,4.233,4.233,0,0,0-2.772-1.05q-6.048,0-11.34,11.676a61.68,61.68,0,0,0-3.528,10.584A48.013,48.013,0,0,0,11-15.792,15.184,15.184,0,0,0,12.558-8.9,12.278,12.278,0,0,0,17.01-3.948,12.3,12.3,0,0,0,23.772-2.1,21.542,21.542,0,0,0,34.9-5.04a54.9,54.9,0,0,0,9.87-7.56,19.4,19.4,0,0,0,1.176-1.89q1.008-1.722,1.512-1.722a.756.756,0,0,1,.672.252A1.791,1.791,0,0,1,48.3-15.036Zm43.092,8.82a2.058,2.058,0,0,1-.966,1.764,4.446,4.446,0,0,1-2.31.756L73.668-2.6l-10,.84-5.208.42a1.51,1.51,0,0,1-1.218-.84,2.952,2.952,0,0,1-.546-1.6,1.048,1.048,0,0,1,.378-.882,2.371,2.371,0,0,1,.84-.42,3.957,3.957,0,0,0,.63-.21q.084-4.536.084-21.168a143.08,143.08,0,0,0-.966-19.026q-.966-6.762-.966-7.266a2.2,2.2,0,0,1,.882-1.848,2.955,2.955,0,0,1,1.806-.672,1.08,1.08,0,0,1,.924.462,3.558,3.558,0,0,1,.5,1.47,55.307,55.307,0,0,1,1.3,10.5q.462,7.644.462,15.96,0,7.056-.084,13.1t-.084,8.148q1.092-.084,4.2-.294T73-6.384q4.872-.588,11-1.764a52.432,52.432,0,0,1,5.964-.924,1.106,1.106,0,0,1,1.176.84A7.072,7.072,0,0,1,91.392-6.216Zm52.164-19.992a3.156,3.156,0,0,1-.294,1.26,2.255,2.255,0,0,1-.8,1.008,5.908,5.908,0,0,1-2.436.882q-1.848.378-2.52.462.672,3.192.672,3.108.588,2.1,1.26,5.8,1.512,8.484,3.108,14.448a18.992,18.992,0,0,1,.42,2.268,1.83,1.83,0,0,1-.672,1.428,2.344,2.344,0,0,1-1.6.588,1.9,1.9,0,0,1-1.512-.882,6.4,6.4,0,0,1-.924-1.554q-.756-2.856-1.386-6.384t-1.47-8.484q-.336-2.184-1.092-5.418t-1.008-4.242q-4.956.672-17.052,2.688l-4.872.84L109.62-13.44l-2.352,6.72q-2.94,9.156-4.2,14.112a4.032,4.032,0,0,1-1.008,1.974,2.448,2.448,0,0,1-1.848.8,2.409,2.409,0,0,1-1.554-.5,1.724,1.724,0,0,1-.63-1.428,16.323,16.323,0,0,1,1.008-3.906q1.008-2.982,1.176-3.57.336-.84,1.344-3.864,1.092-3.276,2.814-7.938t2.31-6.174q-4.284,1.008-6.384,1.6a23.338,23.338,0,0,1-3.948.84,1.541,1.541,0,0,1-1.386-.714,2.8,2.8,0,0,1-.462-1.554,1.636,1.636,0,0,1,.5-1.386,5.416,5.416,0,0,1,1.68-.714q3.192-.756,6.762-1.512t4.914-1.008q.84-2.436,1.26-4.116.336-1.092.882-2.73t1.218-4.074l1.26-4.284q3.192-11.256,3.7-12.852a12.407,12.407,0,0,1,.8-1.848,1.161,1.161,0,0,1,1.05-.672,8.563,8.563,0,0,1,3.024.5,6.077,6.077,0,0,0,.546-.714,2.115,2.115,0,0,1,.84-.756,2.975,2.975,0,0,1,1.218-.21q1.512,0,3.486,3.444a62.243,62.243,0,0,1,3.822,8.148q1.092,2.772,2.772,8.274t2.184,7.266a11.788,11.788,0,0,0,2.142-.462l1.134-.378a3.57,3.57,0,0,0,.924-.588,4.936,4.936,0,0,1,.924-.63.989.989,0,0,1,.924.042A2.071,2.071,0,0,1,143.556-26.208Zm-11,.588q-.42-1.512-1.764-6.342t-2.52-7.854a46.624,46.624,0,0,0-3.024-6.384,12.8,12.8,0,0,0-3.108-4.116l-.924,2.184a42,42,0,0,0-2.436,5.8q-2.016,6.048-6.384,19.992l9.828-1.68,8.064-1.26ZM189.5-14.7a14.43,14.43,0,0,1-2.814,8.274,20.628,20.628,0,0,1-7.9,6.636,25.3,25.3,0,0,1-11.55,2.562,33.761,33.761,0,0,1-8.652-.882Q155.4,1.008,155.4-.588A6.7,6.7,0,0,1,156.618-3.4q1.218-1.974,1.89-1.974,1.008,0,1.008.42a.965.965,0,0,1-.294.588,1.026,1.026,0,0,0-.294.672q0,.252,1.05.756a14.107,14.107,0,0,0,3.234.924,28.514,28.514,0,0,0,5.292.42A18.68,18.68,0,0,0,177.2-3.528,15.309,15.309,0,0,0,182.952-8.4a10.129,10.129,0,0,0,2.016-5.712,7.607,7.607,0,0,0-3.486-6.216q-3.486-2.6-11.214-4.956-7.476-2.436-11.55-4.074a20.628,20.628,0,0,1-6.594-4.032,7.747,7.747,0,0,1-2.52-5.838q0-4.62,5.208-9.114a41.274,41.274,0,0,1,12.852-7.308,41.293,41.293,0,0,1,14.2-2.814q3.36,0,3.612,1.344a16.491,16.491,0,0,1,.252,3.024q0,1.26-.924,1.26a2.094,2.094,0,0,1-.966-.294,9.618,9.618,0,0,0-.966-.462q-.5-.168-1.176-.336a8.456,8.456,0,0,0-1.932-.168,31.188,31.188,0,0,0-10.5,2.268A41.9,41.9,0,0,0,158.634-46.2q-4.494,3.36-4.494,6.468a5.691,5.691,0,0,0,2.058,4.368,17.342,17.342,0,0,0,5.5,3.15q3.444,1.3,9.744,3.234,9.24,2.688,13.65,6.048A10.039,10.039,0,0,1,189.5-14.7Zm46.2,0a14.43,14.43,0,0,1-2.814,8.274,20.628,20.628,0,0,1-7.9,6.636,25.3,25.3,0,0,1-11.55,2.562,33.761,33.761,0,0,1-8.652-.882Q201.6,1.008,201.6-.588A6.7,6.7,0,0,1,202.818-3.4q1.218-1.974,1.89-1.974,1.008,0,1.008.42a.965.965,0,0,1-.294.588,1.026,1.026,0,0,0-.294.672q0,.252,1.05.756a14.107,14.107,0,0,0,3.234.924,28.514,28.514,0,0,0,5.292.42A18.68,18.68,0,0,0,223.4-3.528,15.309,15.309,0,0,0,229.152-8.4a10.129,10.129,0,0,0,2.016-5.712,7.607,7.607,0,0,0-3.486-6.216q-3.486-2.6-11.214-4.956-7.476-2.436-11.55-4.074a20.628,20.628,0,0,1-6.594-4.032,7.747,7.747,0,0,1-2.52-5.838q0-4.62,5.208-9.114a41.274,41.274,0,0,1,12.852-7.308,41.293,41.293,0,0,1,14.2-2.814q3.36,0,3.612,1.344a16.491,16.491,0,0,1,.252,3.024q0,1.26-.924,1.26a2.094,2.094,0,0,1-.966-.294,9.617,9.617,0,0,0-.966-.462q-.5-.168-1.176-.336a8.456,8.456,0,0,0-1.932-.168,31.188,31.188,0,0,0-10.5,2.268A41.9,41.9,0,0,0,204.834-46.2q-4.494,3.36-4.494,6.468a5.691,5.691,0,0,0,2.058,4.368,17.342,17.342,0,0,0,5.5,3.15q3.444,1.3,9.744,3.234,9.24,2.688,13.65,6.048A10.039,10.039,0,0,1,235.7-14.7Zm56.532,8.484a5.051,5.051,0,0,1-.84,2.436q-.84,1.428-1.764,1.428a4.364,4.364,0,0,1-1.6-.294,20.71,20.71,0,0,1-2.268-1.134,77.541,77.541,0,0,0-13.86-6.048q-3.78-1.26-8.946-2.646t-8.106-2.058L255.444-3.7a14.246,14.246,0,0,0,.588,3.822,9.121,9.121,0,0,1,.5,1.974,1.843,1.843,0,0,1-.924,1.554,3.379,3.379,0,0,1-1.932.63q-1.26,0-1.6-1.764,0-.168-.21-1.512a26.014,26.014,0,0,1-.21-3.78q0-1.6-.336-6.8-.084-1.764-.168-3.4t-.084-2.9q-.252-.252-.63-.588a2.563,2.563,0,0,1-.63-.924,13.28,13.28,0,0,1-.42-1.6,7.076,7.076,0,0,1-.168-1.26,1.249,1.249,0,0,1,.336-.924,5.829,5.829,0,0,1,1.008-.756q-.5-21-.5-24.024,0-2.688.084-4.956t.084-3.024q-.5.084-3.024.42t-4.032.672a59.668,59.668,0,0,0-8.19,2.394,50.558,50.558,0,0,0-5.418,2.562,8.508,8.508,0,0,1-1.47.8,3.629,3.629,0,0,1-1.386.294,1.478,1.478,0,0,1-1.176-.63,2.409,2.409,0,0,1-.5-1.554q0-1.6,5.376-3.7a75.174,75.174,0,0,1,11.676-3.444,84.213,84.213,0,0,1,8.988-1.3q5.46-.546,10.164-.546A46.638,46.638,0,0,1,274.974-56.2a18.866,18.866,0,0,1,8.568,4.956,10.561,10.561,0,0,1,2.9,7.308,14.071,14.071,0,0,1-3.024,9.072,26.638,26.638,0,0,1-8.022,6.552,134.924,134.924,0,0,1-13.566,6.3Q259.644-21,257.5-20.16t-2.9,1.176a2.549,2.549,0,0,0,.084.756q9.072,2.016,17.892,4.62l1.764.5q9.156,2.772,13.524,4.326T292.236-6.216Zm-10-37.716a7.038,7.038,0,0,0-2.436-5.124,17.857,17.857,0,0,0-7.35-3.822,41.868,41.868,0,0,0-11.886-1.47q-5.208,0-6.552.168-.084.588-.21,2.772t-.126,4.368l.336,13.44.336,10.416a19.506,19.506,0,0,0,2.982-.8,37.794,37.794,0,0,0,3.738-1.386q10.668-4.284,15.918-8.61T282.24-43.932ZM347-34.44a31.045,31.045,0,0,1-4.872,16.548A39.529,39.529,0,0,1,329.616-5.124,28.5,28.5,0,0,1,314.16-.252a19.941,19.941,0,0,1-8.568-1.89,16.032,16.032,0,0,1-6.552-5.586,15.424,15.424,0,0,1-2.52-8.9,42.194,42.194,0,0,1,4.62-18.438A68.078,68.078,0,0,1,313.992-53a4.684,4.684,0,0,1,1.6-1.008,5.585,5.585,0,0,1,1.764-.252,3.477,3.477,0,0,1,1.638.42q.8.42.8,1.008a2.545,2.545,0,0,1-.294.966q-.294.63-.378.8a7.182,7.182,0,0,0,1.218-.126,19.88,19.88,0,0,1,2.814-.126,37.066,37.066,0,0,1,6.594.8,31.3,31.3,0,0,1,6.09,1.638,20.524,20.524,0,0,1,8.316,6.258A13.429,13.429,0,0,1,347-34.44Zm-3.612,1.764a13.01,13.01,0,0,0-2.268-7.938A16.671,16.671,0,0,0,334.4-45.7a15.025,15.025,0,0,0-6.132-1.092q-1.176,0-3.192.168l-3.108.084q-4.032,0-4.032-1.68a6.653,6.653,0,0,1,.084-1.092,2.792,2.792,0,0,1,.168-.672,4.044,4.044,0,0,0-2.856,1.008,55.64,55.64,0,0,0-10.626,15.2,37.219,37.219,0,0,0-3.738,15.708q0,7.14,3.57,10.374t9.786,3.234a26.68,26.68,0,0,0,13.818-4.032,33.156,33.156,0,0,0,11-10.584A24.7,24.7,0,0,0,343.392-32.676Zm63.756-1.764a31.045,31.045,0,0,1-4.872,16.548A39.53,39.53,0,0,1,389.76-5.124,28.5,28.5,0,0,1,374.3-.252a19.941,19.941,0,0,1-8.568-1.89,16.032,16.032,0,0,1-6.552-5.586,15.424,15.424,0,0,1-2.52-8.9,42.194,42.194,0,0,1,4.62-18.438A68.078,68.078,0,0,1,374.136-53a4.684,4.684,0,0,1,1.6-1.008,5.584,5.584,0,0,1,1.764-.252,3.477,3.477,0,0,1,1.638.42q.8.42.8,1.008a2.545,2.545,0,0,1-.294.966q-.294.63-.378.8a7.182,7.182,0,0,0,1.218-.126,19.88,19.88,0,0,1,2.814-.126,37.066,37.066,0,0,1,6.594.8,31.3,31.3,0,0,1,6.09,1.638,20.524,20.524,0,0,1,8.316,6.258A13.429,13.429,0,0,1,407.148-34.44Zm-3.612,1.764a13.01,13.01,0,0,0-2.268-7.938,16.671,16.671,0,0,0-6.72-5.082,15.025,15.025,0,0,0-6.132-1.092q-1.176,0-3.192.168l-3.108.084q-4.032,0-4.032-1.68a6.653,6.653,0,0,1,.084-1.092,2.792,2.792,0,0,1,.168-.672,4.044,4.044,0,0,0-2.856,1.008,55.64,55.64,0,0,0-10.626,15.2,37.219,37.219,0,0,0-3.738,15.708q0,7.14,3.57,10.374t9.786,3.234A26.68,26.68,0,0,0,388.29-8.484a33.156,33.156,0,0,0,11-10.584A24.7,24.7,0,0,0,403.536-32.676ZM476.952-4.452q0,.588-.966,1.3a3.52,3.52,0,0,1-2.142.714,7.966,7.966,0,0,1-1.6-.126,1.138,1.138,0,0,1-.84-.714q-.756-1.26-1.764-7.476t-1.932-14.28Q465.7-49.644,464.6-50.148q-.924,2.016-2.856,7.6T457.3-27.972q-2.772,9.66-4.2,13.314t-2.52,4.494a9.828,9.828,0,0,1-1.638,1.134,3.5,3.5,0,0,1-1.638.546,1.879,1.879,0,0,1-1.092-.21,3.3,3.3,0,0,1-.588-1.3q-.336-1.26-1.6-7.854t-1.932-11.886l-.5-3.528q-1.428-10.92-1.932-12.18-1.6,1.428-3.024,6.342t-3.276,13.9q-1.764,6.972-4.284,22.68a2.354,2.354,0,0,1-1.26,1.68,4.011,4.011,0,0,1-2.1.756q-1.344,0-1.512-2.6-.084-2.6-1.134-11.256t-1.89-15.2a144.673,144.673,0,0,0-3.192-17.3,26.7,26.7,0,0,1-.588-2.856,2.384,2.384,0,0,1,1.218-2.058,4.734,4.734,0,0,1,2.646-.8q.672,0,1.428,5.208t1.6,13.1l.252,2.772q.336,2.772.756,5.8,1.6,12.852,1.764,16.128,1.68-9.744,3.78-19.572l.756-3.7a62.3,62.3,0,0,1,4.032-13.482q2.184-4.578,5.628-4.578,1.092,0,2.436,5.67a101.965,101.965,0,0,1,2.1,13.23q.588,5.376,1.512,10.5a47,47,0,0,0,1.68,7.14q.5-1.428,2.058-6.3t2.9-9.24A244.8,244.8,0,0,1,462.672-54.6a9.416,9.416,0,0,1,1.638-2.562,3.93,3.93,0,0,1,2.814-.8q1.092,0,2.352,9.576t2.1,22.176Q473.844-8.4,475.692-6.8A3.121,3.121,0,0,1,476.952-4.452Z" transform="translate(378 377)" fill="#fff"/>
    <g id="Path_9" data-name="Path 9" transform="translate(420.212 395)" fill="#058ed9">
      <path d="M 188.7007598876953 137.6387329101563 L 2.499988555908203 96.874755859375 L 2.499988555908203 2.499988555908203 L 378.63427734375 2.499988555908203 L 378.63427734375 96.86637115478516 L 188.7007598876953 137.6387329101563 Z" stroke="none"/>
      <path d="M 4.999969482421875 5.000015258789063 L 4.999969482421875 94.86285400390625 L 188.7059631347656 135.0806121826172 L 376.1343078613281 94.84607696533203 L 376.1343078613281 5.000015258789063 L 4.999969482421875 5.000015258789063 M -3.0517578125e-05 1.52587890625e-05 L 381.1343078613281 1.52587890625e-05 L 381.1343078613281 98.88665008544922 L 188.695556640625 140.1967620849609 L -3.0517578125e-05 98.88665008544922 L -3.0517578125e-05 1.52587890625e-05 Z" stroke="none" fill="#000001"/>
    </g>
    <g id="Path_10" data-name="Path 10" transform="translate(431 404.873)" fill="#058ed9">
      <path d="M 177.8594512939453 116.5133590698242 L 2.500015258789063 80.84220123291016 L 2.500015258789063 2.500027179718018 L 357.5 2.500027179718018 L 357.5 80.83259582519531 L 177.8594512939453 116.5133590698242 Z" stroke="none"/>
      <path d="M 5.000030517578125 4.999977111816406 L 5.000030517578125 78.79957580566406 L 177.8652191162109 113.9633255004883 L 355 78.78031158447266 L 355 4.999977111816406 L 5.000030517578125 4.999977111816406 M 3.0517578125e-05 -2.288818359375e-05 L 360 -2.288818359375e-05 L 360 82.88487243652344 L 177.853515625 119.0633239746094 L 3.0517578125e-05 82.88487243652344 L 3.0517578125e-05 -2.288818359375e-05 Z" stroke="none" fill="#eecb8f"/>
    </g>
    <path id="Path_133" data-name="Path 133" d="M.532,0V-6.156H3.724V-41.192H.532v-6.156H29.108L36.1-40.356v10.944l-4.788,4.788L36.1-19.836V-6.992L29.108,0ZM24.016-6.156,27.36-9.348V-18.24l-3.344-3.344H12.464V-6.156Zm0-21.508,3.344-3.268v-6.992l-3.344-3.268H12.464v13.528ZM39.292,0V-6.156h2.28l11.7-35.036h-3.42v-6.156h22.42v6.156H68.552L80.18-6.156h2.356V0H67.944V-6.156h2.964L68.1-14.44H53.58L50.844-6.156h2.964V0Zm27.36-18.772-5.776-17.4L55.1-18.772Zm19,11.78v-5.852h8.816v3.5L97.66-6.156h10.564l3.192-3.192v-7.9l-3.192-3.192H92.644l-6.992-7.068V-40.356l6.992-6.992h20.6l6.992,6.992V-34.2h-8.816v-3.724l-3.192-3.268H97.66l-3.192,3.268v7.98L97.66-26.6h15.58l6.992,6.992V-6.992L113.24,0h-20.6ZM123.424,0V-6.156h3.192V-41.192h-3.192v-6.156h33.212v8.284h-6.08v-2.128h-15.2v14.516h7.98V-28.8h6.156v10.26h-6.156V-20.6h-7.98v14.44h15.2V-8.284h6.08V0ZM157.7,0V-6.156h3.192V-41.192H157.7v-6.156h28.576l6.992,6.992v10.944l-4.788,4.788,4.788,4.788V-6.992L186.276,0Zm23.484-6.156,3.344-3.192V-18.24l-3.344-3.344H169.632V-6.156Zm0-21.508,3.344-3.268v-6.992l-3.344-3.268H169.632v13.528ZM196.46,0V-6.156h2.28l11.7-35.036h-3.42v-6.156h22.42v6.156H225.72L237.348-6.156H239.7V0H225.112V-6.156h2.964l-2.812-8.284H210.748l-2.736,8.284h2.964V0Zm27.36-18.772-5.776-17.4-5.776,17.4ZM240.692,0V-6.156h3.192V-41.192h-3.192v-6.156h15.124v6.156h-3.192V-6.156h15.428V-9.272h6.156V0Zm34.58,0V-6.156h3.192V-41.192h-3.192v-6.156H290.4v6.156H287.2V-6.156h15.428V-9.272h6.156V0Z" transform="translate(457 474)" fill="#eecb8f"/>
  </g>
</svg>
