<svg xmlns="http://www.w3.org/2000/svg" width="344.37" height="300.035" viewBox="0 0 344.37 300.035">
  <g id="strike-icon" transform="translate(-806.826 -201.289)">
    <path id="Path_93" data-name="Path 93" d="M6249.668,305.927c-8.84-21.909,23.635-33.362,35.776-18.229.567-20.834,33.759-15.332,34.483,0,1.344-8.356,30.708-13.076,26.883,13.369,22.747,6.141,22.075,21.432,12.045,23.939,10.021,11.915-22.576,25.778-32.553,16.587,3.1,8.9-9.977,11.959-15.819-4.752.022,14.861-31.59,25.727-42.76,4.523-4.5,14.2-48.488,4.591-23.012-10.6C6208.509,327.725,6235.856,291.645,6249.668,305.927Z" transform="matrix(0.891, 0.454, -0.454, 0.891, -4399.478, -2860.483)" fill="#f5f5f5" stroke="#000001" stroke-linecap="round" stroke-width="5"/>
    <path id="Intersection_6" data-name="Intersection 6" d="M-5901.057-66.49c7.83-8.291,13.3-14.575,13.206-23.415.659,9.937,15.48,4.7,21.357,3.6-2.334,5.08,6.6,15.937,13.6,7.823.68,6.954,7.308,15.783,12.586,13.208l-12.586,6.4-5.993,3.148-3.6,5.965c-2.958,3.325-7.988,5.007-13.454,5.007C-5887.207-44.751-5900.33-51.885-5901.057-66.49Zm60.9,1.145-.146.074Z" transform="translate(6931.216 356.577)" fill="#e8e6e6"/>
    <path id="Path_96" data-name="Path 96" d="M6249.668,305.927c-8.84-21.909,23.635-33.362,35.776-18.229.567-20.834,33.759-15.332,34.483,0,1.344-8.356,30.708-13.076,26.883,13.369,22.747,6.141,22.075,21.432,12.045,23.939,10.021,11.915-22.576,25.778-32.553,16.587,3.1,8.9-9.977,11.959-15.819-4.752.022,14.861-31.59,25.727-42.76,4.523-4.5,14.2-48.488,4.591-23.012-10.6C6208.509,327.725,6235.856,291.645,6249.668,305.927Z" transform="matrix(0.891, 0.454, -0.454, 0.891, -4399.478, -2860.483)" fill="none" stroke="#000001" stroke-linecap="round" stroke-width="5"/>
    <path id="Path_97" data-name="Path 97" d="M6230.853,282.573c-2.521-10.713,12.8-12.323,17.891-3.407-4.634-22.521,31.352-14.838,23.256,4.773,19.306-20.64,22.5,26.959,7.57,22.023,13.522,6.032-5.236,25.18-13.659,7.085,1.252,9.916-16.311,19.24-19.321,7.274-2.317,8.711-22.746,3.92-17.578-4.1C6201.557,324.706,6213.886,274.774,6230.853,282.573Z" transform="translate(5997.555 -3427.873) rotate(139)" fill="#f5f5f5" stroke="#000001" stroke-linecap="round" stroke-width="5"/>
    <path id="Path_98" data-name="Path 98" d="M6246.943,304.316c1.734-23.914,35.659-28.773,36.709-17.293.682-10.3,24.157-13.337,24.893,3.317,1.365-9.075,30.565-19,26.68,9.725,23.106,6.67,22.254,22.439,12.066,25.162,15.019,5.763,4.322,20.946-4.76,18.9,3.151,9.665-24.248,27-30.182,8.848,2.468,17.561-49.149,15.511-55.083-5.68,10.489,20.2-33.194,30.681-23.006,16.478-18.538-1.225-27.991-29.758-4.885-25.538C6200.7,334.011,6234.708,295.831,6246.943,304.316Z" transform="translate(-3995.217 4250.002) rotate(-42)" fill="#f5f5f5" stroke="#000001" stroke-linecap="round" stroke-width="5"/>
    <path id="Intersection_7" data-name="Intersection 7" d="M-5874.751-36.189c-5.919-8.584,7.208-32,12.438-38.3,36.208,2.185,29-8.362,34.918-11.717,6.547,5.364,8.5,15.043,8.393,25.028a14.893,14.893,0,0,1-2.429-1.132,7.541,7.541,0,0,1,2.371,3.382c-.1,2.413-.3,4.823-.582,7.18-5.112,12.846-28.921,28.929-43.66,23.487a12.577,12.577,0,0,1,1.528,1.141C-5867.531-29.972-5872.658-33.155-5874.751-36.189Z" transform="translate(6753.389 350.839)" fill="#e8e6e6"/>
    <path id="Path_101" data-name="Path 101" d="M6246.943,304.316c1.734-23.914,35.659-28.773,36.709-17.293.682-10.3,24.157-13.337,24.893,3.317,1.365-9.075,30.565-19,26.68,9.725,23.106,6.67,22.254,22.439,12.066,25.162,15.019,5.763,4.322,20.946-4.76,18.9,3.151,9.665-24.248,27-30.182,8.848,2.468,17.561-49.149,15.511-55.083-5.68,10.489,20.2-33.194,30.681-23.006,16.478-18.538-1.225-27.991-29.758-4.885-25.538C6200.7,334.011,6234.708,295.831,6246.943,304.316Z" transform="translate(-3995.217 4250.002) rotate(-42)" fill="none" stroke="#000001" stroke-linecap="round" stroke-width="5"/>
    <path id="Path_102" data-name="Path 102" d="M6455.939,300.121c4.361,24.754-55.535,16.289-21.291-10.261-25.487,2.749-17.353-29.314,0-17.01-6.043-15.852,15.288-26.585,19.149-7.14,3.278-19.759,30.806,11.047,13.741,14.056,14.457,0,12.259,14.639,2.942,15.111,15.625,8.3-13.531,19.553-14.542,5.243" transform="matrix(0.966, 0.259, -0.259, 0.966, -5234.367, -1485.569)" fill="#f5f5f5" stroke="#000001" stroke-width="5"/>
    <path id="Path_103" data-name="Path 103" d="M6367.879,346.754c27.535,3.788,30.315-11.541,30.315-11.541" transform="translate(-5475 -70.956)" fill="none" stroke="#000001" stroke-linecap="round" stroke-width="5"/>
    <path id="Path_104" data-name="Path 104" d="M6691.384,343.258c-1.253,13.024,15.092,7.186,21.339,6.018-2.335,5.079,6.6,15.937,13.6,7.823.759,7.764,8.932,17.864,14.011,12.026" transform="translate(-5648 -79)" fill="none" stroke="#000001" stroke-width="5"/>
    <path id="Path_105" data-name="Path 105" d="M6361.9,390.825c37.759,11.213,52.011,50.018,52.011,50.018" transform="translate(-5469 -79)" fill="none" stroke="#000001" stroke-width="3"/>
    <path id="Path_106" data-name="Path 106" d="M6361.9,390.825c34.62,10.866,46.473,54.591,46.473,54.591" transform="translate(-445.079 -5913.357) rotate(73)" fill="none" stroke="#000001" stroke-width="3"/>
    <path id="Path_107" data-name="Path 107" d="M6372.024,387.214c18.825,14.228,22.214,36.821,22.214,36.821" transform="matrix(-0.891, 0.454, -0.454, -0.891, 6921.751, -2133.884)" fill="none" stroke="#000001" stroke-width="3"/>
    <path id="Path_108" data-name="Path 108" d="M6361.9,390.825c12.765,5.244,14.026,25.355,14.026,25.355" transform="matrix(-0.438, -0.899, 0.899, -0.438, 3390.141, 6323.426)" fill="none" stroke="#000001" stroke-width="3"/>
    <path id="Path_109" data-name="Path 109" d="M6398.71,372.841c-1.162,6,5.251,17.827,13.183,29.7,10.325,15.461,23.286,30.8,23.286,30.8" transform="translate(-5480 -91)" fill="none" stroke="#000001" stroke-width="3"/>
    <path id="Path_110" data-name="Path 110" d="M6678.159,440.843s25.393-61.559,36.688-62.941" transform="translate(-5648 -79)" fill="none" stroke="#000001" stroke-width="3"/>
    <path id="Path_111" data-name="Path 111" d="M6430.18,435.687c-25.442-33.347-26.468-34.116-30.7-35.912" transform="translate(-5475 -79)" fill="none" stroke="#000001" stroke-width="3"/>
    <path id="Path_112" data-name="Path 112" d="M6661.25,435.687c17.058-18.854,36.636-56.1,36.636-56.1" transform="translate(-5648 -79)" fill="none" stroke="#000001" stroke-width="3"/>
    <path id="Path_113" data-name="Path 113" d="M6444.482,654.552c1.8,16.795-3.534,25.1-3.593,25.192" transform="matrix(0.966, 0.259, -0.259, 0.966, -5112.191, -1899.036)" fill="none" stroke="#000001" stroke-linecap="square" stroke-width="3"/>
    <path id="Path_114" data-name="Path 114" d="M6669.9,640.775c17.645,10.175,31.021,16.486,34.891,25.681" transform="translate(-5654 -227)" fill="none" stroke="#000001" stroke-width="3"/>
    <path id="Path_115" data-name="Path 115" d="M6711.329,653.615c-14.367-8.611-19.106-12.94-19.106-12.94" transform="translate(-5654 -227)" fill="none" stroke="#000001" stroke-width="3"/>
  </g>
</svg>
